<svg xmlns="http://www.w3.org/2000/svg" width="72.972" height="39.692" viewBox="0 0 72.972 39.692"><defs><style>.a,.b{fill:#fff;}.b,.c{fill-rule:evenodd;}.c{fill:#016fd0;}</style></defs><g transform="translate(0)"><rect class="a" width="72.972" height="39.692" rx="4.679" transform="translate(0 0)"/><path class="b" d="M612.858,986.31v-8.939h9.464l1.016,1.324,1.049-1.324h34.353v8.322a3.969,3.969,0,0,1-1.938.617H637.78l-1.145-1.409v1.409h-3.751V983.9a3.148,3.148,0,0,1-1.62.336h-1.277v2.069h-5.68l-1.014-1.352-1.03,1.352Z" transform="translate(-593.786 -956.138)"/><path class="b" d="M593.107,961.416l2.134-4.976h3.691l1.211,2.787V956.44h4.588l.721,2.014.7-2.014h20.6v1.012a4.445,4.445,0,0,1,2.862-1.012l6.683.023,1.19,2.75V956.44h3.839l1.057,1.58v-1.58h3.875v8.939h-3.875l-1.013-1.585v1.585h-5.641l-.567-1.409h-1.516l-.558,1.409h-3.825a3.782,3.782,0,0,1-2.51-.992v.992h-5.768l-1.145-1.409v1.409H598.385l-.567-1.409h-1.512l-.563,1.409h-2.637v-3.963Z" transform="translate(-585.087 -946.919)"/><path class="c" d="M596.005,958.409l-2.878,6.693H595l.531-1.34h3.088l.528,1.34h1.915l-2.876-6.693Zm1.065,1.558.941,2.342h-1.885l.944-2.342Z" transform="translate(-585.096 -947.787)"/><path class="c" d="M607.664,965.1v-6.693l2.663.01,1.549,4.315,1.512-4.325h2.642V965.1h-1.673v-4.932l-1.774,4.932h-1.467l-1.779-4.932V965.1Z" transform="translate(-591.499 -947.786)"/><path class="c" d="M624.661,965.1v-6.693h5.46v1.5h-3.769v1.145h3.681v1.409h-3.681v1.189h3.769V965.1Z" transform="translate(-598.985 -947.786)"/><path class="c" d="M636.15,958.409V965.1h1.673v-2.378h.7l2.006,2.378h2.045l-2.2-2.466a2.038,2.038,0,0,0,1.835-2.056,2.165,2.165,0,0,0-2.339-2.171Zm1.673,1.5h1.913a.768.768,0,0,1,.792.7.756.756,0,0,1-.768.7h-1.937v-1.409Z" transform="translate(-604.045 -947.787)"/><path class="c" d="M649.913,965.1H648.2v-6.693h1.709V965.1Z" transform="translate(-609.354 -947.786)"/><path class="c" d="M655.95,965.1h-.369c-1.784,0-2.867-1.406-2.867-3.319a3.066,3.066,0,0,1,3.324-3.374h1.849v1.585h-1.917a1.61,1.61,0,0,0-1.562,1.805,1.639,1.639,0,0,0,1.806,1.84h.44l-.705,1.462Z" transform="translate(-611.34 -947.786)"/><path class="c" d="M662.738,958.409,659.86,965.1h1.874l.531-1.34h3.088l.529,1.34H667.8l-2.876-6.693Zm1.065,1.558.941,2.342h-1.885l.944-2.342Z" transform="translate(-614.487 -947.787)"/><path class="c" d="M674.393,965.1v-6.693h2.127l2.716,4.205v-4.205h1.673V965.1h-2.059l-2.785-4.315V965.1Z" transform="translate(-620.888 -947.786)"/><path class="c" d="M614.9,986.031v-6.693h5.46v1.5h-3.769v1.145h3.681v1.409h-3.681v1.189h3.769v1.453Z" transform="translate(-594.687 -957.005)"/><path class="c" d="M662.715,986.031v-6.693h5.46v1.5h-3.769v1.145h3.664v1.409h-3.664v1.189h3.769v1.453Z" transform="translate(-615.745 -957.005)"/><path class="c" d="M624.99,986.031l2.658-3.305-2.722-3.388h2.108l1.621,2.094,1.626-2.094h2.026l-2.686,3.346,2.663,3.346h-2.108L628.6,983.97l-1.536,2.061Z" transform="translate(-599.102 -957.005)"/><path class="c" d="M638.432,979.34v6.693h1.717V983.92h1.761a2.315,2.315,0,0,0,2.62-2.328,2.2,2.2,0,0,0-2.4-2.251Zm1.717,1.514H642a.755.755,0,0,1,.826.771.772.772,0,0,1-.831.771h-1.849v-1.541Z" transform="translate(-605.05 -957.005)"/><path class="c" d="M650.629,979.338v6.693H652.3v-2.378h.7l2.006,2.378h2.045l-2.2-2.466a2.038,2.038,0,0,0,1.835-2.056,2.165,2.165,0,0,0-2.339-2.171Zm1.673,1.5h1.913a.768.768,0,0,1,.792.7.756.756,0,0,1-.768.7H652.3v-1.409Z" transform="translate(-610.422 -957.005)"/><path class="c" d="M673.69,986.031v-1.453h3.349c.5,0,.71-.267.71-.561s-.214-.566-.71-.566h-1.513a1.871,1.871,0,0,1-2.048-2c0-1.073.671-2.108,2.625-2.108h3.258l-.7,1.506h-2.818c-.539,0-.7.283-.7.553a.583.583,0,0,0,.616.584h1.585a1.836,1.836,0,0,1,2.1,1.921,2.007,2.007,0,0,1-2.182,2.13Z" transform="translate(-620.485 -957.005)"/><path class="c" d="M684.665,986.031v-1.453h3.207c.5,0,.71-.267.71-.561s-.214-.566-.71-.566H686.5a1.871,1.871,0,0,1-2.047-2c0-1.073.67-2.108,2.625-2.108h3.194l-.7,1.506h-2.754c-.539,0-.7.283-.7.553a.583.583,0,0,0,.617.584h1.443a1.836,1.836,0,0,1,2.1,1.921,2.007,2.007,0,0,1-2.182,2.13Z" transform="translate(-625.319 -957.005)"/></g></svg>