<svg xmlns="http://www.w3.org/2000/svg" width="72.972" height="39.692" viewBox="0 0 72.972 39.692"><defs><style>.a{fill:#fff;}.b{fill:#005ca8;}.c{fill:#f6a723;}</style></defs><rect class="a" width="72.972" height="39.692" rx="4.679" transform="translate(0 0)"/><g transform="translate(10.396 11.382)"><path class="b" d="M192.086,975.472h-4.257l2.661-16.354h4.258Z" transform="translate(-169.466 -958.825)"/><path class="b" d="M169.793,959.118l-4.059,11.248-.48-2.422h0l-1.432-7.354a1.823,1.823,0,0,0-2.02-1.473h-6.71l-.079.277a15.89,15.89,0,0,1,4.454,1.87l3.7,14.208H167.6l6.774-16.354Z" transform="translate(-155.013 -958.825)"/><path class="b" d="M232.432,975.473h3.91l-3.409-16.354h-3.423a1.956,1.956,0,0,0-1.965,1.219l-6.35,15.136h4.438l.888-2.429h5.413Zm-4.685-5.785,2.237-6.121,1.259,6.121Z" transform="translate(-184.161 -958.825)"/><path class="b" d="M212.248,962.82l.608-3.512a12.294,12.294,0,0,0-3.83-.713c-2.113,0-7.131.924-7.131,5.414,0,4.226,5.889,4.278,5.889,6.5s-5.282,1.822-7.025.422l-.633,3.671a11.921,11.921,0,0,0,4.807.924c2.9,0,7.289-1.505,7.289-5.6,0-4.252-5.942-4.648-5.942-6.5S210.426,961.816,212.248,962.82Z" transform="translate(-174.882 -958.595)"/><path class="c" d="M165.254,967.945l-1.432-7.354a1.823,1.823,0,0,0-2.02-1.473h-6.71l-.079.277a16.5,16.5,0,0,1,6.32,3.173A12.748,12.748,0,0,1,165.254,967.945Z" transform="translate(-155.013 -958.825)"/></g></svg>